<svg width="260" height="177" viewBox="0 0 260 177" fill="none" xmlns="http://www.w3.org/2000/svg">
<path d="M3.4375 176.125L92.875 139L259.937 176.125L82.75 84.9999L3.4375 176.125ZM133.375 0.624907C127.408 1.46583 121.988 4.55496 118.224 9.26031C114.46 13.9656 112.636 19.9315 113.125 25.9374C113.347 29.0399 114.177 32.0683 115.569 34.8498C116.961 37.6314 118.887 40.1115 121.238 42.1485C125.985 46.2626 132.172 48.3225 138.437 47.8749C141.54 47.6533 144.568 46.8228 147.35 45.4308C150.131 44.0388 152.612 42.1125 154.649 39.7621C156.686 37.4116 158.24 34.6829 159.222 31.7318C160.205 28.7806 160.597 25.6649 160.375 22.5624C160.176 19.2984 159.301 16.1112 157.807 13.2027C156.312 10.2942 154.23 7.72763 151.692 5.66553C149.154 3.60342 146.215 2.09066 143.062 1.223C139.909 0.355341 136.611 0.151678 133.375 0.624907ZM150.25 106.937L217.75 30.9999L143.5 61.3749L0.0625 30.9999L150.25 106.937Z" fill="#89AAFF" fill-opacity="0.1"/>
</svg>
