<svg xmlns="http://www.w3.org/2000/svg" xmlns:xlink="http://www.w3.org/1999/xlink" fill="#b5caff" viewBox="0 0 124 124">
  <defs>
    <g id="a" fill="#fff" stroke="#ff0016" stroke-width="1.5">
      <path d="M.95 8.41c0 2.07 3.6 3.74 8.05 3.74 4.45 0 8.05-1.67 8.05-3.74v-4.2L.95 3.74m16.15 0v4.67m-16.2 0V3.74"/>
      <ellipse cx="9" cy="3.74" rx="8.05" ry="3.74"/>
    </g>
  </defs>
  <path fill="#B5CAFF" d="M91.34 97.04C109.05 98.4 121 101.02 121 104c0 4.42-26.2 8-58.5 8S4 108.42 4 104c0-2.03 5.53-3.88 14.63-5.3L21 99l7.33 4.88.03.1h61.45z"/>
  <use xlink:href="#a" x="99" y="92"/>
  <use xlink:href="#a" x="103" y="84"/>
  <circle cx="43" cy="85" r="4.3"/>
  <circle cx="76" cy="85" r="4.3"/>
  <circle cx="50" cy="76" r="2.2" fill="#1551e5"/>
  <circle cx="69" cy="76" r="2.2" fill="#1551e5"/>
  <g fill="none" stroke="#1551e5" stroke-linejoin="round" stroke-width="1.5">
    <path stroke-linejoin="bevel" d="M67.143 84.692a9 9 0 0 1-7.6 4.3 9 9 0 0 1-7.5-4"/>
    <path d="m28.609 104.928-7.5-5-8.259-1.078-10.8-53.4 12 3.4 2.956 2.925M2.05 45.45l84.011.011 3 2.3 12.82 3.727M59.85 41.05v-2.4c0-9.8-8.5-17.8-18.8-17.8-10.5 0-19.016 8-19 17.8l.011 6.696"/>
    <path d="M78.05 51.35v-6.7c0-9.8-8.5-17.8-19-17.8-10.4 0-18.691 8-18.8 17.8l-.072 6.505m45.572.295h16l-12 53.4h-61.3l-11.9-53.4h47.3z"/>
  </g>
</svg>
